HIERARCHY
ROOT Hips
{
	OFFSET 0.000000 0.000000 0.000000
	CHANNELS 6 Xposition Yposition Zposition Zrotation Yrotation Xrotation 
	JOINT LHipJoint
	{
		OFFSET 0.000000 0.000000 0.000000
		CHANNELS 3 Zrotation Yrotation Xrotation
		JOINT LeftUpLeg
		{
			OFFSET 1.363060 -1.794630 0.839290
			CHANNELS 3 Zrotation Yrotation Xrotation
			JOINT LeftLeg
			{
				OFFSET 2.448110 -6.726130 0.000000
				CHANNELS 3 Zrotation Yrotation Xrotation
				JOINT LeftFoot
				{
					OFFSET 2.562200 -7.039590 0.000000
					CHANNELS 3 Zrotation Yrotation Xrotation
					JOINT LeftToeBase
					{
						OFFSET 0.157640 -0.433110 2.322550
						CHANNELS 3 Zrotation Yrotation Xrotation
						End Site
						{
							OFFSET 0.000000 0.000000 0.000000
						}
					}
				}
			}
		}
	}
	JOINT RHipJoint
	{
		OFFSET 0.000000 0.000000 0.000000
		CHANNELS 3 Zrotation Yrotation Xrotation
		JOINT RightUpLeg
		{
			OFFSET -1.305520 -1.794630 0.839290
			CHANNELS 3 Zrotation Yrotation Xrotation
			JOINT RightLeg
			{
				OFFSET -2.542530 -6.985550 0.000000
				CHANNELS 3 Zrotation Yrotation Xrotation
				JOINT RightFoot
				{
					OFFSET -2.568260 -7.056230 0.000000
					CHANNELS 3 Zrotation Yrotation Xrotation
					JOINT RightToeBase
					{
						OFFSET -0.164730 -0.452590 2.363150
						CHANNELS 3 Zrotation Yrotation Xrotation
						End Site
						{
							OFFSET 0.000000 0.000000 0.000000
						}
					}
				}
			}
		}
	}
	JOINT LowerBack
	{
		OFFSET 0.000000 0.000000 0.000000
		CHANNELS 3 Zrotation Yrotation Xrotation
		JOINT Spine
		{
			OFFSET 0.028270 2.035590 -0.193380
			CHANNELS 3 Zrotation Yrotation Xrotation
			JOINT Spine1
			{
				OFFSET 0.056720 2.048850 -0.042750
				CHANNELS 3 Zrotation Yrotation Xrotation
				JOINT Neck
				{
					OFFSET 0.000000 0.000000 0.000000
					CHANNELS 3 Zrotation Yrotation Xrotation
					JOINT Neck1
					{
						OFFSET -0.054170 1.746240 0.172020
						CHANNELS 3 Zrotation Yrotation Xrotation
						JOINT Head
						{
							OFFSET 0.104070 1.761360 -0.123970
							CHANNELS 3 Zrotation Yrotation Xrotation
							End Site
							{
								OFFSET 0.000000 0.000000 0.000000
							}
						}
					}
				}
				JOINT LeftShoulder
				{
					OFFSET 0.000000 0.000000 0.000000
					CHANNELS 3 Zrotation Yrotation Xrotation
					JOINT LeftArm
					{
						OFFSET 3.362410 1.200890 -0.311210
						CHANNELS 3 Zrotation Yrotation Xrotation
						JOINT LeftForeArm
						{
							OFFSET 4.983000 -0.000000 -0.000000
							CHANNELS 3 Zrotation Yrotation Xrotation
							JOINT LeftHand
							{
								OFFSET 3.483560 -0.000000 -0.000000
								CHANNELS 3 Zrotation Yrotation Xrotation
								JOINT LeftFingerBase
								{
									OFFSET 0.000000 0.000000 0.000000
									CHANNELS 3 Zrotation Yrotation Xrotation
									JOINT LeftHandIndex1
									{
										OFFSET 0.715260 -0.000000 -0.000000
										CHANNELS 3 Zrotation Yrotation Xrotation
										End Site
										{
											OFFSET 0.000000 0.000000 0.000000
										}
									}
								}
								JOINT LThumb
								{
									OFFSET 0.000000 0.000000 0.000000
									CHANNELS 3 Zrotation Yrotation Xrotation
									End Site
									{
										OFFSET 0.000000 0.000000 0.000000
									}
								}
							}
						}
					}
				}
				JOINT RightShoulder
				{
					OFFSET 0.000000 0.000000 0.000000
					CHANNELS 3 Zrotation Yrotation Xrotation
					JOINT RightArm
					{
						OFFSET -3.136600 1.374050 -0.404650
						CHANNELS 3 Zrotation Yrotation Xrotation
						JOINT RightForeArm
						{
							OFFSET -5.241900 -0.000000 -0.000000
							CHANNELS 3 Zrotation Yrotation Xrotation
							JOINT RightHand
							{
								OFFSET -3.444170 -0.000000 -0.000000
								CHANNELS 3 Zrotation Yrotation Xrotation
								JOINT RightFingerBase
								{
									OFFSET 0.000000 0.000000 0.000000
									CHANNELS 3 Zrotation Yrotation Xrotation
									JOINT RightHandIndex1
									{
										OFFSET -0.622530 -0.000000 -0.000000
										CHANNELS 3 Zrotation Yrotation Xrotation
										End Site
										{
											OFFSET 0.000000 0.000000 0.000000
										}
									}
								}
								JOINT RThumb
								{
									OFFSET 0.000000 0.000000 0.000000
									CHANNELS 3 Zrotation Yrotation Xrotation
									End Site
									{
										OFFSET 0.000000 0.000000 0.000000
									}
								}
							}
						}
					}
				}
			}
		}
	}
}
MOTION
Frames: 8
Frame Time: 0.008333
7.869104 16.637404 1.593412 -152.963364 -66.245671 -164.022231 -1.134324 -5.418522 -5.957922 14.642205 -2.730264 -75.182116 3.969922 10.873482 32.196325 -2.557570 13.649017 19.499762 3.412800 -11.335100 -33.418500 0.873587 5.401050 -2.932805 21.307327 -5.685206 -60.704319 -11.195358 -17.901662 63.622547 -3.938451 16.088174 1.556664 -1.148000 6.803400 -19.134300 -3.974126 -1.598333 21.737704 -3.268331 -3.161924 2.622215 -4.093571 -2.233052 1.554520 0.370743 7.027457 -12.399784 -0.679895 9.346148 -12.355775 -0.956900 4.166100 -4.441400 -9.342217 -11.402840 -1.191886 -16.950215 -35.197840 23.340698 4.810576 -12.447125 -1.058121 -0.442001 1.826208 -2.215311 15.577438 -10.291831 -3.453100 -7.125000 0.000000 0.000000 -7.826700 17.402200 5.176500 9.592296 10.182778 10.025331 -65.544713 50.771005 -75.283108 -25.578920 47.627633 -13.763427 -0.471706 2.374820 -39.688385 -15.601433 -16.513830 5.491200 7.125000 0.000000 0.000000 11.145500 -49.025200 -1.119000 
7.914097 16.534860 1.628904 -152.884748 -65.582019 -163.618967 -1.024183 -5.276447 -5.746522 14.201245 -1.918641 -77.858365 4.629237 11.576839 35.651274 -1.416494 10.698614 20.036903 3.290600 -11.151300 -32.791800 0.638906 5.228565 -2.968311 21.206741 -5.315583 -63.781795 -12.544816 -18.344068 67.846107 -3.766791 17.076324 3.223231 -0.901900 6.052100 -16.935800 -4.076255 -1.616847 21.755067 -3.310245 -3.230120 2.653890 -4.089946 -2.279158 1.449493 0.346348 7.186662 -12.149583 -0.904549 9.558026 -12.508002 -1.049200 4.273900 -4.519900 -9.308692 -11.466388 -1.254637 -16.619518 -35.212010 21.974043 4.800398 -12.522557 -1.113374 -0.627456 1.912758 -2.636218 16.771740 -10.258173 -3.785600 -7.125000 0.000000 0.000000 -6.878400 17.230500 4.565400 9.552570 10.237948 9.931070 -65.904319 50.162110 -75.334580 -26.279826 48.162145 -14.217495 -0.472045 2.407631 -40.574994 -16.473094 -16.678784 5.862400 7.125000 0.000000 0.000000 10.317400 -49.335600 -1.113700 
7.954612 16.406981 1.669091 -152.609500 -64.941429 -163.538602 -0.945546 -5.111094 -5.489852 14.036461 -1.254860 -80.689077 5.523924 12.456995 39.896400 -0.450202 7.909980 19.940349 3.168600 -10.963100 -32.155700 0.458399 5.054881 -2.991012 21.077385 -4.985681 -66.790466 -13.967276 -18.715057 72.195360 -3.607835 17.699169 4.280159 -0.776500 5.626200 -15.703600 -3.954444 -1.655582 21.788004 -3.347100 -3.294912 2.694355 -4.193481 -2.315796 1.341960 0.344674 7.351824 -11.859434 -1.193092 9.777318 -12.682712 -1.169700 4.387700 -4.608300 -9.294818 -11.502664 -1.270723 -16.436779 -35.165820 20.471867 4.820531 -12.619114 -1.170768 -0.781947 1.967877 -2.875573 17.734507 -10.106313 -4.016200 -7.125000 0.000000 0.000000 -6.106600 17.230400 4.046900 9.529144 10.277266 9.824356 -66.093390 49.651057 -75.203672 -27.234212 48.807196 -14.820589 -0.464938 2.436981 -41.378741 -17.384810 -16.923398 6.279200 7.125000 0.000000 0.000000 9.466300 -49.730000 -1.112800 
7.990431 16.253766 1.712118 -152.204546 -64.281441 -163.738501 -0.901689 -4.925992 -5.198722 14.079764 -0.654673 -83.587321 6.684924 13.453819 44.858865 0.341719 5.410148 19.416895 3.018000 -10.724100 -31.355000 0.328942 4.885527 -3.004575 20.923029 -4.706713 -69.686562 -15.437588 -18.997578 76.604506 -3.483719 18.019639 4.698522 -0.742900 5.505800 -15.357000 -3.687877 -1.704936 21.828697 -3.385845 -3.354898 2.760584 -4.364168 -2.346969 1.272283 0.371256 7.531092 -11.578594 -1.526766 10.014235 -12.869864 -1.310500 4.510700 -4.695900 -9.299617 -11.515617 -1.253488 -16.322851 -35.058901 19.031164 4.849123 -12.708520 -1.219706 -0.930092 1.989124 -3.192037 18.491408 -9.804962 -4.133800 -7.125000 0.000000 0.000000 -5.479100 17.436900 3.602100 9.520847 10.298068 9.723719 -66.210345 49.234921 -75.052244 -28.418857 49.561742 -15.579128 -0.449871 2.453538 -42.030178 -18.190201 -17.140391 6.652200 7.125000 0.000000 0.000000 8.705400 -50.070000 -1.095300 
8.021882 16.077618 1.756019 -151.760955 -63.580299 -164.148225 -0.893888 -4.728779 -4.884056 14.273401 -0.066210 -86.459049 8.113316 14.487232 50.415781 0.975256 3.276030 18.708602 2.832000 -10.418000 -30.341400 0.245467 4.724321 -3.011744 20.734639 -4.497785 -72.433478 -16.920200 -19.178103 80.999012 -3.394503 18.113744 4.636939 -0.741900 5.502400 -15.347300 -3.370334 -1.756637 21.892577 -3.421384 -3.413117 2.852798 -4.535971 -2.378366 1.246878 0.412956 7.726889 -11.341240 -1.891014 10.272434 -13.046166 -1.462400 4.645700 -4.769100 -9.321749 -11.505884 -1.208805 -16.246711 -34.889762 17.811959 4.870064 -12.770684 -1.253466 -1.088041 1.975518 -3.750637 19.070781 -9.343617 -4.137000 -7.125000 0.000000 0.000000 -4.967000 17.859100 3.216600 9.527781 10.296381 9.643014 -66.331939 48.927967 -74.972903 -29.826676 50.428254 -16.504537 -0.431829 2.449897 -42.482977 -18.734664 -17.325665 6.915000 7.125000 0.000000 0.000000 8.197700 -50.323200 -1.081900 
8.049948 15.881267 1.798827 -151.384972 -62.825754 -164.641164 -0.919601 -4.528226 -4.555123 14.542782 0.556215 -89.264087 9.779047 15.469912 56.417949 1.476100 1.518258 18.040951 2.668600 -10.138300 -29.425700 0.201451 4.571706 -3.013912 20.491051 -4.360386 -75.055814 -18.381909 -19.250389 85.318096 -3.329823 18.053666 4.324284 -0.717200 5.411700 -15.086700 -3.084793 -1.789049 21.983308 -3.455587 -3.453541 2.950901 -4.677723 -2.402818 1.236930 0.476253 7.926029 -11.155463 -2.258357 10.535100 -13.181168 -1.615400 4.783600 -4.814800 -9.357877 -11.476976 -1.142127 -16.214622 -34.676620 17.024753 4.883100 -12.800246 -1.269945 -1.262609 1.926786 -4.677602 19.499581 -8.741118 -4.036200 -7.125000 0.000000 0.000000 -4.550100 18.472300 2.883100 9.548494 10.278684 9.580777 -66.397525 48.744391 -74.906559 -31.471434 51.390222 -17.610312 -0.413324 2.426310 -42.720634 -18.958729 -17.513648 7.051800 7.125000 0.000000 0.000000 8.019500 -50.515500 -1.096200 
8.073318 15.671921 1.839561 -151.153292 -62.010580 -165.194368 -0.976678 -4.331784 -4.222392 14.819799 1.219070 -91.861393 11.622655 16.328798 62.698626 1.877871 0.082141 17.551151 2.573900 -9.971100 -28.883300 0.193241 4.429956 -3.012715 20.180711 -4.330022 -77.484988 -19.783363 -19.217335 89.479009 -3.280523 17.945810 3.987661 -0.628700 5.073600 -14.118600 -2.896550 -1.784550 22.177377 -3.483623 -3.469481 3.048976 -4.750617 -2.418723 1.203895 0.519839 8.127612 -10.998587 -2.598685 10.803941 -13.267930 -1.752400 4.927500 -4.838600 -9.407840 -11.431005 -1.048730 -16.253416 -34.413713 16.762873 4.899199 -12.808614 -1.275414 -1.453707 1.849710 -6.014287 19.840947 -8.058781 -3.870400 -7.125000 0.000000 0.000000 -4.186700 19.194600 2.584300 9.583015 10.245643 9.531942 -66.369903 48.683442 -74.765581 -33.390598 52.445677 -18.921291 -0.393991 2.385670 -42.782699 -18.902688 -17.698811 7.073700 7.125000 0.000000 0.000000 8.129200 -50.647600 -1.137800 
8.093193 15.450671 1.877782 -151.131472 -61.161232 -165.668091 -1.061064 -4.144544 -3.891364 15.050104 1.921289 -94.285309 13.573878 17.009965 69.105800 2.223446 -1.146427 17.308976 2.619500 -10.052000 -29.145400 0.213967 4.296921 -3.008823 19.787340 -4.401414 -79.831952 -21.101311 -19.084829 93.441639 -3.237181 17.898305 3.836490 -0.471200 4.402500 -12.211800 -2.849308 -1.742389 22.422157 -3.491246 -3.459523 3.126279 -4.724305 -2.424386 1.142618 0.506910 8.328503 -10.858751 -2.891253 11.076190 -13.304584 -1.861800 5.077400 -4.844900 -9.469764 -11.365980 -0.920055 -16.458615 -34.116633 16.788685 4.940526 -12.823235 -1.285618 -1.635649 1.763645 -7.444010 20.131719 -7.361182 -3.674300 -7.125000 0.000000 0.000000 -3.863800 19.940800 2.319600 9.628645 10.197567 9.479513 -66.194388 48.723299 -74.447484 -35.605773 53.575414 -20.452356 -0.372987 2.332696 -42.702660 -18.628103 -17.866281 7.000100 7.125000 0.000000 0.000000 8.458300 -50.716900 -1.198900 
